<?xml version="1.0" encoding="UTF-8"?>
<svg id="Layer_1" xmlns="http://www.w3.org/2000/svg" version="1.1" viewBox="0 0 564.9 245.5">
  <!-- Generator: Adobe Illustrator 30.0.0, SVG Export Plug-In . SVG Version: 2.1.1 Build 123)  -->
  <defs>
    <style>
      .st0 {
        fill: #161412;
      }

      .st1 {
        fill: #c39400;
      }
    </style>
  </defs>
  <g>
    <path class="st1" d="M141.2,100c.6-.5,1.3-1.1,2-1.7,6.4-5.2,10.9-9.5,13.4-13.1,2.5-3.7,3.7-7.5,3.7-11.7,0-6.7-3.7-12.1-10.9-16.5-3.9-2.3-8.4-4-13.7-5.1l-4-.7c-3.5-.5-7.2-.8-11.2-.8l3.5,63.1,17.1-13.5Z"/>
    <path class="st1" d="M143,103.1c-.6.6-1.2,1.1-1.7,1.6l-12.6,12,63.1,3.4c0-2.8-.3-5.5-.8-8l-.7-3.1c-1.1-4.1-2.9-7.7-5.2-10.8-4.4-5.7-10-8.6-16.8-8.6s-8.2,1-11.9,2.9c-3.6,1.9-8.1,5.5-13.3,10.5Z"/>
    <path class="st1" d="M139.6,175.1s0,0,0,0c4.1-3.1,2.6-7.8,1.5-10.1-.2-.4-.5-.8-.7-1.3h0s0,0,0,0c-3.6-6.7-10.3-20.8-11.8-35.7l4,2.4c3.7,2.1,7.8,5.3,12.4,9.5,5.7,5.3,10.1,8.7,13.1,10.5,3,1.7,6.6,2.6,10.8,2.6,6.9,0,12.5-2.8,16.9-8.6,4.3-5.7,6.4-13.4,6.3-22.9,0-.1,0-.2,0-.4l-67.5,3.7-3.8,68.6c1,0,2-.5,2.8-1.4,4.6-5.6,13.2-14.6,16.3-16.7Z"/>
    <path class="st1" d="M97.1,98.3c.7.6,1.4,1.1,2,1.7l17.1,13.5,3.5-63.1c-4,0-7.7.3-11.2.8l-4,.7c-5.3,1.1-9.8,2.8-13.7,5.1-7.3,4.3-10.9,9.8-10.9,16.5s1.2,8,3.7,11.7c2.5,3.6,7,7.9,13.4,13.1Z"/>
    <path class="st1" d="M99,104.7c-.6-.5-1.1-1-1.7-1.6-5.3-5.1-9.7-8.6-13.3-10.5-3.7-2-7.6-2.9-11.9-2.9-6.8,0-12.4,2.9-16.8,8.6-2.3,3-4.1,6.6-5.2,10.8l-.7,3.1c-.5,2.5-.7,5.1-.8,8l63.1-3.4-12.6-12Z"/>
    <path class="st1" d="M71.7,152.8c4.2,0,7.7-.8,10.8-2.6,3-1.7,7.4-5.2,13.1-10.5,4.6-4.2,8.7-7.4,12.4-9.5l4-2.4c-1.5,14.9-8.2,29-11.8,35.7h0s0,0,0,0c-.3.5-.5.9-.7,1.3-1.1,2.3-2.7,7.1,1.5,10.1,0,0,0,0,0,0,3.1,2.2,11.7,11.2,16.3,16.7.7.9,1.7,1.3,2.7,1.4l-3.8-68.6-67.5-3.7c0,.1,0,.2,0,.4-.1,9.5,2,17.2,6.3,22.9,4.3,5.7,9.9,8.6,16.9,8.6Z"/>
  </g>
  <g>
    <path class="st0" d="M255.8,108.7c2.8-2.8,5.1-6,6.8-9.7,1.7-3.7,2.6-7.7,2.7-12v-2c0,0-30.3,0-30.3,0v11.8h14.6c-.3.4-.6.8-.9,1.2-1.2,1.5-2.6,2.8-4.1,3.8-1.5,1.1-3.2,1.9-5,2.5-1.8.6-3.7.9-5.6.9s-5-.5-7.2-1.5c-2.2-1-4.3-2.3-6-4-1.7-1.7-3.1-3.7-4-6-1-2.3-1.5-4.7-1.5-7.3s.5-5.1,1.5-7.3c1-2.3,2.3-4.3,4-6,1.7-1.7,3.7-3.1,6-4,2.2-1,4.7-1.5,7.2-1.5s6.3.8,9,2.3c2.8,1.6,5,3.7,6.7,6.3l1.5,2.3,10.5-6.9-1.4-2.2c-2.8-4.3-6.5-7.8-11.1-10.3-4.6-2.6-9.7-3.9-15.2-3.9s-8.5.8-12.3,2.5c-3.8,1.6-7.1,3.9-9.9,6.7-2.8,2.8-5,6.2-6.7,9.9-1.6,3.8-2.5,7.9-2.5,12.2s.8,8.4,2.5,12.2c1.6,3.8,3.9,7.1,6.7,9.9,2.8,2.8,6.1,5.1,9.9,6.7,3.8,1.6,7.9,2.5,12.3,2.5s8.3-.8,12-2.4c3.7-1.6,7-3.8,9.9-6.6Z"/>
    <path class="st0" d="M489.5,77c5.8,0,9.9,5.3,9.9,11.2v28.4h12.9v-30.8c0-.5,0-1.1-.1-1.8,0-.6-.2-1.3-.3-2-.3-1.6-.8-3.4-1.6-5.4-.8-2.1-2.1-4.1-3.7-5.9-1.7-1.8-3.8-3.3-6.5-4.5-2.7-1.2-6-1.8-9.8-1.8s-4.9.4-6.9,1c-1.9.7-3.6,1.4-4.9,2.2,0,0-.1,0-.2,0v-1.9h-12.9v50.8h12.9v-30.6s1.5-9,10.5-9h.6Z"/>
    <path class="st0" d="M350.5,116.6h3.5l-.2-12.7h-3.3c-9.2,0-11.9-3.3-11.9-12.2v-38.2l-13.6,3.6v37.2c0,12.2,6,22.2,25.6,22.2h0Z"/>
    <path class="st0" d="M436.6,103.8c-2,0-4-.5-5.9-1.4l-.3-.2.3-.2,30.9-18.2c-5.6-18.3-22.9-18.8-24.8-18.8s-.3,0-.3,0c-14.3,0-25.9,11.7-25.9,25.9s11.6,25.9,25.9,25.9,17.7-4.9,22.3-12.8l-11.2-6.4c-2.4,3.9-6.6,6.2-11.2,6.2ZM423.4,90c0-8.1,7.1-14,14.1-14s6.3,1.3,8.6,3.4l-22.4,13.6c-.2-1-.4-2-.4-3Z"/>
    <path class="st0" d="M294.6,64.8c-14.4,0-26.2,11.7-26.2,26.2s11.7,26.2,26.2,26.2,26.2-11.7,26.2-26.2-11.7-26.2-26.2-26.2ZM294.6,103.7c-7.2,0-13-5.8-13-13s5.8-13,13-13,13,5.8,13,13-5.8,13-13,13Z"/>
    <path class="st0" d="M393.1,52.3v16.3c-3.8-2.2-8.3-3.5-13-3.5-14.4,0-26.2,11.7-26.2,26.2s11.7,26.2,26.2,26.2,9.2-1.3,13-3.5v2.6h13V52.3c.1,0-13,0-13,0ZM380.1,104c-7.2,0-13-5.8-13-13s5.8-13,13-13,12.9,5.7,13,12.8v.2h0c0,7.2-5.8,13-13,13Z"/>
  </g>
  <g>
    <path class="st0" d="M350.9,169.3h0c-9.3,0-12-3.3-12-12.2v-36.8l-13.7,3.7v35.9c0,12.2,6.1,22.3,25.7,22.3h0s3.5,0,3.5,0l-.2-12.8h-3.3Z"/>
    <path class="st0" d="M438.1,142.5c4.8,0,9,2.6,11.3,6.5l9.5-9.3c-4.8-6.1-12.3-10.1-20.7-10.1-14.6,0-26.4,11.8-26.4,26.4s11.8,26.4,26.4,26.4,15.7-3.8,20.5-9.8l-9.7-9.5c-2.4,3.5-6.3,5.8-10.9,5.8-7.2,0-13.1-5.9-13.1-13.1s5.9-13.1,13.1-13.1Z"/>
    <path class="st0" d="M237.5,130.4c-4.6,0-9,1.3-12.7,3.4v-2.4h-12.9v64.6s12.9-3.6,12.9-3.6v-14.2c3.7,2.1,8.1,3.4,12.7,3.4,14.1,0,25.6-11.5,25.6-25.6s-11.5-25.6-25.6-25.6ZM237.5,168.4c-6.7,0-12.1-5.1-12.7-11.7,0,0,0-.9,0-1.1,0-7,5.7-12.7,12.7-12.7s12.7,5.7,12.7,12.7-5.7,12.7-12.7,12.7Z"/>
    <path class="st0" d="M305.1,131.5v2.3c-3.8-2.2-8.1-3.4-12.7-3.4-14.1,0-25.6,11.5-25.6,25.6s11.5,25.6,25.6,25.6,9-1.2,12.7-3.4v3.6h12.9v-50.3h-12.9ZM292.3,168.4c-7,0-12.7-5.7-12.7-12.7s5.7-12.7,12.7-12.7,12.7,5.7,12.7,12.7-5.7,12.7-12.7,12.7Z"/>
    <path class="st0" d="M392.7,131.5v2.3c-3.8-2.2-8.1-3.4-12.7-3.4-14.1,0-25.6,11.5-25.6,25.6s11.5,25.6,25.6,25.6,9-1.2,12.7-3.4v3.6h12.9v-50.3h-12.9ZM379.9,168.4c-7,0-12.7-5.7-12.7-12.7s5.7-12.7,12.7-12.7,12.7,5.7,12.7,12.7-5.7,12.7-12.7,12.7Z"/>
    <path class="st0" d="M488.4,169.2c-2.1,0-4.1-.5-6-1.4l-.3-.2.3-.2,31.4-18.5c-5.7-18.6-23.2-19.1-25.2-19.1s-.3,0-.3,0c-14.5,0-26.2,11.8-26.2,26.3s11.8,26.3,26.3,26.3,18-5,22.7-13l-11.3-6.5c-2.5,3.9-6.7,6.3-11.3,6.3ZM475,155.1c0-8.2,7.2-14.2,14.3-14.2s6.4,1.3,8.7,3.4l-22.7,13.8c-.2-1-.4-2-.4-3Z"/>
  </g>
</svg>