<?xml version="1.0" encoding="UTF-8"?>
<svg id="Layer_1" xmlns="http://www.w3.org/2000/svg" version="1.1" viewBox="0 0 564.9 177.5">
  <!-- Generator: Adobe Illustrator 30.0.0, SVG Export Plug-In . SVG Version: 2.1.1 Build 123)  -->
  <defs>
    <style>
      .st0 {
        fill: #161412;
      }

      .st1 {
        fill: #c39400;
      }
    </style>
  </defs>
  <g>
    <path class="st1" d="M114.6,60.9c.7-.6,1.6-1.3,2.4-2,7.7-6.2,13.1-11.4,16.1-15.7,3-4.4,4.4-9,4.4-14,0-8-4.4-14.5-13.1-19.8-4.7-2.8-10.1-4.8-16.4-6.1l-4.8-.8c-4.2-.6-8.6-1-13.4-1l4.2,75.6,20.5-16.2h.1Z"/>
    <path class="st1" d="M116.8,64.7c-.7.7-1.4,1.3-2,1.9l-15.1,14.4,75.6,4.1c0-3.4-.4-6.6-1-9.6l-.8-3.7c-1.3-4.9-3.5-9.2-6.2-12.9-5.3-6.8-12-10.3-20.1-10.3s-9.8,1.2-14.3,3.5c-4.3,2.3-9.7,6.6-15.9,12.6h-.1Z"/>
    <path class="st1" d="M112.7,151h0c4.9-3.7,3.1-9.3,1.8-12.1-.2-.5-.6-1-.8-1.6h0c-4.3-8-12.3-24.9-14.1-42.8l4.8,2.9c4.4,2.5,9.3,6.4,14.9,11.4,6.8,6.4,12.1,10.4,15.7,12.6,3.6,2,7.9,3.1,12.9,3.1,8.3,0,15-3.4,20.3-10.3,5.2-6.8,7.7-16.1,7.6-27.4v-.5l-80.9,4.4-4.6,82.2c1.2,0,2.4-.6,3.4-1.7,5.5-6.7,15.8-17.5,19.5-20l-.4-.2Z"/>
    <path class="st1" d="M61.8,58.9c.8.7,1.7,1.3,2.4,2l20.5,16.2L88.9,1.5c-4.8,0-9.2.4-13.4,1l-4.8.8c-6.4,1.3-11.7,3.4-16.4,6.1-8.7,5.2-13.1,11.7-13.1,19.8s1.4,9.6,4.4,14c3,4.3,8.4,9.5,16.1,15.7h.1Z"/>
    <path class="st1" d="M64.1,66.6c-.7-.6-1.3-1.2-2-1.9-6.4-6.1-11.6-10.3-15.9-12.6-4.4-2.4-9.1-3.5-14.3-3.5-8.2,0-14.9,3.5-20.1,10.3-2.8,3.6-4.9,7.9-6.2,12.9l-.8,3.7c-.6,3-.8,6.1-1,9.6l75.6-4.1-15.1-14.4h-.1Z"/>
    <path class="st1" d="M31.3,124.2c5,0,9.2-1,12.9-3.1,3.6-2,8.9-6.2,15.7-12.6,5.5-5,10.4-8.9,14.9-11.4l4.8-2.9c-1.8,17.9-9.8,34.8-14.1,42.8h0c-.4.6-.6,1.1-.8,1.6-1.3,2.8-3.2,8.5,1.8,12.1h0c3.7,2.6,14,13.4,19.5,20,.8,1.1,2,1.6,3.2,1.7l-4.6-82.2L3.8,85.8v.5c-.1,11.4,2.4,20.6,7.6,27.4s11.9,10.3,20.3,10.3l-.2.2Z"/>
  </g>
  <g>
    <path class="st0" d="M252,71.4c3.4-3.4,6.1-7.2,8.2-11.6s3.1-9.2,3.2-14.4v-2.4h-36.3v14.1h17.5c-.4.5-.7,1-1.1,1.4-1.4,1.8-3.1,3.4-4.9,4.6-1.8,1.3-3.8,2.3-6,3s-4.4,1.1-6.7,1.1-6-.6-8.6-1.8-5.2-2.8-7.2-4.8-3.7-4.4-4.8-7.2c-1.2-2.8-1.8-5.6-1.8-8.7s.6-6.1,1.8-8.7c1.2-2.8,2.8-5.2,4.8-7.2s4.4-3.7,7.2-4.8c2.6-1.2,5.6-1.8,8.6-1.8s7.6,1,10.8,2.8c3.4,1.9,6,4.4,8,7.6l1.8,2.8,12.6-8.3-1.7-2.6c-3.4-5.2-7.8-9.3-13.3-12.3-5.5-3.1-11.6-4.7-18.2-4.7s-10.2,1-14.7,3c-4.6,1.9-8.5,4.7-11.9,8-3.4,3.4-6,7.4-8,11.9-1.9,4.6-3,9.5-3,14.6s1,10.1,3,14.6c1.9,4.6,4.7,8.5,8,11.9s7.3,6.1,11.9,8c4.6,1.9,9.5,3,14.7,3s9.9-1,14.4-2.9,8.4-4.6,11.9-7.9h-.1Z"/>
    <path class="st0" d="M532.1,33.4c7,0,11.9,6.4,11.9,13.4v34h15.5v-36.9c0-.6,0-1.3-.1-2.2,0-.7-.2-1.6-.4-2.4-.4-1.9-1-4.1-1.9-6.5-1-2.5-2.5-4.9-4.4-7.1-2-2.2-4.6-4-7.8-5.4s-7.2-2.2-11.7-2.2-5.9.5-8.3,1.2c-2.3.8-4.3,1.7-5.9,2.6h-.2v-2.3h-15.5v60.9h15.5v-36.7s1.8-10.8,12.6-10.8h.8Z"/>
    <path class="st0" d="M365.5,80.8h4.2l-.2-15.2h-4c-11,0-14.3-4-14.3-14.6V5.2l-16.3,4.3v44.6c0,14.6,7.2,26.6,30.7,26.6h-.1Z"/>
    <path class="st0" d="M468.7,65.5c-2.4,0-4.8-.6-7.1-1.7l-.4-.2.4-.2,37-21.8c-6.7-21.9-27.4-22.5-29.7-22.5s-.4,0-.4,0c-17.1,0-31,14-31,31s13.9,31,31,31,21.2-5.9,26.7-15.3l-13.4-7.7c-2.9,4.7-7.9,7.4-13.4,7.4h.2ZM452.9,49c0-9.7,8.5-16.8,16.9-16.8s7.6,1.6,10.3,4.1l-26.8,16.3c-.2-1.2-.5-2.4-.5-3.6h.1Z"/>
    <path class="st0" d="M298.5,18.8c-17.3,0-31.4,14-31.4,31.4s14,31.4,31.4,31.4,31.4-14,31.4-31.4-14-31.4-31.4-31.4ZM298.5,65.4c-8.6,0-15.6-7-15.6-15.6s7-15.6,15.6-15.6,15.6,7,15.6,15.6-7,15.6-15.6,15.6Z"/>
    <path class="st0" d="M416.6,3.8v19.5c-4.6-2.6-9.9-4.2-15.6-4.2-17.3,0-31.4,14-31.4,31.4s14,31.4,31.4,31.4,11-1.6,15.6-4.2v3.1h15.6V3.8c.1,0-15.6,0-15.6,0ZM401,65.7c-8.6,0-15.6-7-15.6-15.6s7-15.6,15.6-15.6,15.5,6.8,15.6,15.3v.2h0c0,8.6-7,15.6-15.6,15.6Z"/>
  </g>
  <g>
    <path class="st0" d="M366,144h0c-11.1,0-14.4-4-14.4-14.6v-44.1l-16.4,4.4v43c0,14.6,7.3,26.7,30.8,26.7h4.2l-.2-15.3h-4Z"/>
    <path class="st0" d="M470.5,111.9c5.8,0,10.8,3.1,13.5,7.8l11.4-11.1c-5.8-7.3-14.7-12.1-24.8-12.1-17.5,0-31.6,14.1-31.6,31.6s14.1,31.6,31.6,31.6,18.8-4.6,24.6-11.7l-11.6-11.4c-2.9,4.2-7.6,7-13.1,7-8.6,0-15.7-7.1-15.7-15.7s7.1-15.7,15.7-15.7v-.2Z"/>
    <path class="st0" d="M230.1,97.4c-5.5,0-10.8,1.6-15.2,4.1v-2.9h-15.5v77.4l15.5-4.3v-17c4.4,2.5,9.7,4.1,15.2,4.1,16.9,0,30.7-13.8,30.7-30.7s-13.8-30.7-30.7-30.7h0ZM230.1,142.9c-8,0-14.5-6.1-15.2-14v-1.3c0-8.4,6.8-15.2,15.2-15.2s15.2,6.8,15.2,15.2-6.8,15.2-15.2,15.2h0Z"/>
    <path class="st0" d="M311.1,98.7v2.8c-4.6-2.6-9.7-4.1-15.2-4.1-16.9,0-30.7,13.8-30.7,30.7s13.8,30.7,30.7,30.7,10.8-1.4,15.2-4.1v4.3h15.5v-60.3h-15.5ZM295.8,142.9c-8.4,0-15.2-6.8-15.2-15.2s6.8-15.2,15.2-15.2,15.2,6.8,15.2,15.2-6.8,15.2-15.2,15.2Z"/>
    <path class="st0" d="M416.1,98.7v2.8c-4.6-2.6-9.7-4.1-15.2-4.1-16.9,0-30.7,13.8-30.7,30.7s13.8,30.7,30.7,30.7,10.8-1.4,15.2-4.1v4.3h15.5v-60.3h-15.5ZM400.8,142.9c-8.4,0-15.2-6.8-15.2-15.2s6.8-15.2,15.2-15.2,15.2,6.8,15.2,15.2-6.8,15.2-15.2,15.2Z"/>
    <path class="st0" d="M530.8,143.9c-2.5,0-4.9-.6-7.2-1.7l-.4-.2.4-.2,37.6-22.2c-6.8-22.3-27.8-22.9-30.2-22.9s-.4,0-.4,0c-17.4,0-31.4,14.1-31.4,31.5s14.1,31.5,31.5,31.5,21.6-6,27.2-15.6l-13.5-7.8c-3,4.7-8,7.6-13.5,7.6h-.1ZM514.7,127c0-9.8,8.6-17,17.1-17s7.7,1.6,10.4,4.1l-27.2,16.5c-.2-1.2-.5-2.4-.5-3.6h.1Z"/>
  </g>
</svg>